<?xml version="1.0" encoding="iso-8859-1"?>
<!-- Generator: Adobe Illustrator 16.2.0, SVG Export Plug-In . SVG Version: 6.00 Build 0)  -->
<!DOCTYPE svg PUBLIC "-//W3C//DTD SVG 1.1//EN" "http://www.w3.org/Graphics/SVG/1.1/DTD/svg11.dtd">
<svg version="1.1" id="&#x421;&#x43B;&#x43E;&#x439;_1"
	 xmlns="http://www.w3.org/2000/svg" xmlns:xlink="http://www.w3.org/1999/xlink" x="0px" y="0px" width="50px" height="50px"
	 viewBox="0 0 50 50" style="enable-background:new 0 0 50 50;" xml:space="preserve">
<path d="M1.708,30.042v-6.021h0.313v-0.375l9.05-4.438c0,0-0.091-8.271-0.091-11.688s0.438-3.708,1.479-4.833
	s3.688-1.896,5.708-0.333S20,6.042,20,6.042v13.188l7.979,4.458v1.042l-0.198,0.114v5.219h-0.545l1.607,18.906h-4.938l-1-7.219
	v7.219h-6.188l-0.5-1.75l-0.813,1.75H8.125L7.75,46.25l-0.281,2.719H0.563l2.344-18.906L1.708,30.042z M3.922,30.047L1.719,48h4.828
	l1.016-10.109L9,48h5.781l1.688-3.813L17.5,48h4.422l0.188-13.672l0.984-0.047L24.781,48h2.953l-1.469-17.953H3.922z M2.833,25.167
	v3.75h23.813v-3.75H2.833z M3.734,23.922L26.453,24l-7.469-4.172c0,0,0-10.156,0-13.703c0-2.797-2.234-3.652-3.688-3.656
	c-0.516-0.001-3.281,0.281-3.298,3.983c-0.015,3.376,0.032,13.36,0.032,13.36L3.734,23.922z"/>
<path d="M17.667,6.62c0,1.44-1.167,2.607-2.607,2.607S12.452,8.06,12.452,6.62
	c0-1.44,1.167-2.607,2.607-2.607S17.667,5.18,17.667,6.62z M15.059,5.131c-0.823,0-1.489,0.666-1.489,1.489
	c0,0.823,0.667,1.489,1.489,1.489s1.489-0.667,1.489-1.489C16.548,5.797,15.882,5.131,15.059,5.131z"/>
</svg>
