<?xml version="1.0" encoding="iso-8859-1"?>
<!-- Generator: Adobe Illustrator 16.2.0, SVG Export Plug-In . SVG Version: 6.00 Build 0)  -->
<!DOCTYPE svg PUBLIC "-//W3C//DTD SVG 1.1//EN" "http://www.w3.org/Graphics/SVG/1.1/DTD/svg11.dtd">
<svg version="1.1" id="&#x421;&#x43B;&#x43E;&#x439;_1"
	 xmlns="http://www.w3.org/2000/svg" xmlns:xlink="http://www.w3.org/1999/xlink" x="0px" y="0px" width="50px" height="50px"
	 viewBox="0 0 50 50" style="enable-background:new 0 0 50 50;" xml:space="preserve">
<g>
	<g>
		<path style="fill:none;stroke:#6B6966;stroke-miterlimit:10;" d="M29.5,19.266V5.049c0-2.299-2.201-4.18-4.5-4.18
			s-4.5,1.881-4.5,4.18v14.185l-9,4.672v0.448c0,0,26,0.447,26,0.04v-0.466L29.5,19.266z"/>
	</g>
	<g>
		<circle style="fill:none;stroke:#6B6966;stroke-width:1.1305;stroke-miterlimit:10;" cx="25.076" cy="5.729" r="2.149"/>
	</g>
	<g>
		
			<rect x="11.687" y="24.535" style="fill:none;stroke:#6B6966;stroke-width:1.1305;stroke-miterlimit:10;" width="26.146" height="5.137"/>
	</g>
	<g>
		<polyline style="fill:none;stroke:#6B6966;stroke-miterlimit:10;" points="12.971,29.574 10.5,49.5 16.644,49.5 17.316,42.684 
			18.276,49.5 25.092,49.5 26.437,46.523 27.225,49.5 32.772,49.5 32.98,34.662 34.789,49.5 38.917,49.5 37.284,29.67 		"/>
	</g>
</g>
</svg>
