<?xml version="1.0" encoding="iso-8859-1"?>
<!-- Generator: Adobe Illustrator 16.2.0, SVG Export Plug-In . SVG Version: 6.00 Build 0)  -->
<!DOCTYPE svg PUBLIC "-//W3C//DTD SVG 1.1//EN" "http://www.w3.org/Graphics/SVG/1.1/DTD/svg11.dtd">
<svg version="1.1" id="&#x421;&#x43B;&#x43E;&#x439;_1"
	 xmlns="http://www.w3.org/2000/svg" xmlns:xlink="http://www.w3.org/1999/xlink" x="0px" y="0px" width="24px" height="38.324px"
	 viewBox="0 0 24 38.324" style="enable-background:new 0 0 24 38.324;" xml:space="preserve">
<g>
	<path style="fill:#000002;" d="M23.573,38.324H0.427C0.191,38.324,0,38.019,0,37.643V0.682C0,0.305,0.191,0,0.427,0h23.146
		C23.809,0,24,0.305,24,0.682v36.961C24,38.019,23.809,38.324,23.573,38.324L23.573,38.324z M17.944,36.961h5.202v-8.307
		l-4.825,7.705c-0.001,0.001-0.001,0.003-0.003,0.004L17.944,36.961z M11.301,36.961h5.436l0.677-1.079l-2.718-4.341L11.301,36.961z
		 M5.099,36.961h4.996l7.419-11.848l-2.498-3.987L7.138,33.705L5.099,36.961z M0.854,36.961h3.038l2.341-3.737L3.61,29.036
		l-2.756,4.401V36.961z M15.3,30.576l2.718,4.341l5.129-8.19v-8.681L15.3,30.576z M4.213,28.072l2.623,4.188l13.089-20.901
		l-2.622-4.188l-5.132,8.194c-0.001,0.001-0.001,0.001-0.001,0.001L4.213,28.072z M0.854,22.354v9.154l2.451-3.911
		c0.001-0.003,0.002-0.006,0.004-0.009c0.001-0.001,0.003-0.004,0.004-0.007l7.952-12.697l-2.806-4.481L0.854,22.354z
		 M15.619,20.161l2.498,3.988l5.017-8.011c0.004-0.006,0.009-0.013,0.013-0.02V8.142L15.619,20.161z M0.854,11.232v9.211l3.38-5.313
		l-2.896-4.625L0.854,11.232z M1.959,9.571l2.883,4.603l8.122-12.766H7.386L1.959,9.571z M9.066,9.448l2.801,4.474l7.865-12.559
		h-5.523L9.066,9.448z M17.906,6.208l2.622,4.188l2.618-4.181V1.363H20.94L17.906,6.208z M0.854,1.363v7.999l0.159-0.24
		c0.009-0.018,0.019-0.035,0.029-0.051c0.017-0.026,0.033-0.05,0.052-0.072l5.077-7.636H0.854z M0.854,1.363"/>
</g>
</svg>
