<?xml version="1.0" encoding="utf-8"?>
<!-- Generator: Avocode 2.4.5 - http://avocode.com -->
<svg height="30" width="30" xmlns:xlink="http://www.w3.org/1999/xlink" xmlns="http://www.w3.org/2000/svg" viewBox="0 0 30 30">
    <path fill="#ffffff" fill-rule="evenodd" d="M 14.91 29.99 C 6.69 29.99 0 23.27 0 15 C 0 6.73 6.69 0 14.91 0 C 23.13 0 29.81 6.73 29.81 15 C 29.81 23.27 23.13 29.99 14.91 29.99 Z M 23.38 13.25 C 23.38 13.25 23.38 9.77 23.38 9.77 C 23.38 7.95 21.91 6.47 20.11 6.47 C 20.11 6.47 9.71 6.47 9.71 6.47 C 7.9 6.47 6.43 7.95 6.43 9.77 C 6.43 9.77 6.43 13.25 6.43 13.25 C 6.43 13.25 6.43 20.23 6.43 20.23 C 6.43 22.05 7.9 23.53 9.71 23.53 C 9.71 23.53 20.11 23.53 20.11 23.53 C 21.91 23.53 23.38 22.05 23.38 20.23 C 23.38 20.23 23.38 13.25 23.38 13.25 Z M 20.11 21.86 C 20.11 21.86 9.71 21.86 9.71 21.86 C 8.81 21.86 8.08 21.13 8.08 20.23 C 8.08 20.23 8.08 13.25 8.08 13.25 C 8.08 13.25 10.61 13.25 10.61 13.25 C 10.39 13.79 10.27 14.38 10.27 15 C 10.27 17.57 12.35 19.66 14.91 19.66 C 17.47 19.66 19.54 17.57 19.54 15 C 19.54 14.38 19.42 13.79 19.2 13.25 C 19.2 13.25 21.73 13.25 21.73 13.25 C 21.73 13.25 21.73 20.23 21.73 20.23 C 21.73 21.13 21 21.86 20.11 21.86 Z M 18.55 8.44 C 18.55 8.44 21.05 8.44 21.05 8.44 C 21.05 8.44 21.42 8.44 21.42 8.44 C 21.42 8.44 21.42 8.81 21.42 8.81 C 21.42 8.81 21.42 11.32 21.42 11.32 C 21.42 11.32 18.56 11.34 18.56 11.34 C 18.56 11.34 18.55 8.44 18.55 8.44 Z M 14.91 18 C 13.26 18 11.92 16.65 11.92 15 C 11.92 14.34 12.13 13.74 12.49 13.25 C 13.03 12.49 13.91 12 14.91 12 C 15.9 12 16.78 12.49 17.33 13.25 C 17.68 13.74 17.89 14.34 17.89 15 C 17.89 16.65 16.55 18 14.91 18 Z" />
</svg>