<?xml version="1.0" encoding="iso-8859-1"?>
<!-- Generator: Adobe Illustrator 16.2.0, SVG Export Plug-In . SVG Version: 6.00 Build 0)  -->
<!DOCTYPE svg PUBLIC "-//W3C//DTD SVG 1.1//EN" "http://www.w3.org/Graphics/SVG/1.1/DTD/svg11.dtd">
<svg version="1.1" id="&#x421;&#x43B;&#x43E;&#x439;_3"
	 xmlns="http://www.w3.org/2000/svg" xmlns:xlink="http://www.w3.org/1999/xlink" x="0px" y="0px" width="40.612px"
	 height="41.836px" viewBox="0 0 40.612 41.836" style="enable-background:new 0 0 40.612 41.836;" xml:space="preserve">
<path d="M20.336,15.096l5.995,5.99l-5.99,5.996l-5.997-5.99L20.336,15.096z M15.295,21.092l5.045,5.041l5.041-5.045l-5.045-5.04
	L15.295,21.092z"/>
<path d="M6.193,15.096l5.995,5.99l-5.99,5.996l-5.997-5.99L6.193,15.096z M1.152,21.092l5.045,5.04l5.041-5.046l-5.045-5.04
	L1.152,21.092z"/>
<path d="M13.265,22.167l5.995,5.99l-5.99,5.996l-5.997-5.99L13.265,22.167z M8.224,28.164l5.045,5.04l5.041-5.046l-5.045-5.04
	L8.224,28.164z"/>
<path d="M20.336,29.239l5.995,5.99l-5.99,5.996l-5.997-5.99L20.336,29.239z M15.295,35.235l5.045,5.04l5.041-5.046l-5.045-5.039
	L15.295,35.235z"/>
<path d="M27.406,22.167l5.995,5.99l-5.99,5.996l-5.996-5.99L27.406,22.167z M22.365,28.164l5.045,5.04l5.041-5.046l-5.045-5.04
	L22.365,28.164z"/>
<path d="M34.478,15.096l5.995,5.99l-5.99,5.996l-5.997-5.99L34.478,15.096z M29.437,21.092l5.045,5.04l5.041-5.046l-5.045-5.04
	L29.437,21.092z"/>
<path d="M27.406,8.026l5.995,5.99l-5.99,5.996l-5.996-5.99L27.406,8.026z M22.365,14.022l5.045,5.04l5.041-5.046l-5.045-5.04
	L22.365,14.022z"/>
<path d="M20.336,0.955l5.995,5.99l-5.99,5.996l-5.997-5.99L20.336,0.955z M15.295,6.95l5.045,5.041l5.041-5.045l-5.045-5.04
	L15.295,6.95z"/>
<path d="M13.265,8.026l5.995,5.99l-5.99,5.996l-5.997-5.99L13.265,8.026z M8.224,14.021l5.045,5.041l5.041-5.045l-5.045-5.04
	L8.224,14.021z"/>
</svg>
