<?xml version="1.0" encoding="iso-8859-1"?>
<!-- Generator: Adobe Illustrator 16.2.0, SVG Export Plug-In . SVG Version: 6.00 Build 0)  -->
<!DOCTYPE svg PUBLIC "-//W3C//DTD SVG 1.1//EN" "http://www.w3.org/Graphics/SVG/1.1/DTD/svg11.dtd">
<svg version="1.1" xmlns="http://www.w3.org/2000/svg" xmlns:xlink="http://www.w3.org/1999/xlink" x="0px" y="0px" width="50px"
	 height="50px" viewBox="0 0 50 50" style="enable-background:new 0 0 50 50;" xml:space="preserve">
<g id="&#x421;&#x43B;&#x43E;&#x439;_1">
</g>
<g id="&#x421;&#x43B;&#x43E;&#x439;_2">
	<g>
		
			<rect x="7.526" y="20.68" transform="matrix(-0.7074 -0.7068 0.7068 -0.7074 2.1519 50.0773)" style="fill:none;stroke:#000000;stroke-width:0.7116;stroke-miterlimit:10;" width="7.828" height="7.827"/>
		
			<rect x="14.598" y="13.608" transform="matrix(-0.7074 -0.7068 0.7068 -0.7074 19.2222 43.0016)" style="fill:none;stroke:#000000;stroke-width:0.7116;stroke-miterlimit:10;" width="7.827" height="7.828"/>
		
			<rect x="14.598" y="27.751" transform="matrix(-0.7074 -0.7068 0.7068 -0.7074 9.2265 67.1485)" style="fill:none;stroke:#000000;stroke-width:0.7116;stroke-miterlimit:10;" width="7.827" height="7.828"/>
		
			<rect x="21.669" y="20.68" transform="matrix(-0.7074 -0.7068 0.7068 -0.7074 26.2988 60.0724)" style="fill:none;stroke:#000000;stroke-width:0.7116;stroke-miterlimit:10;" width="7.828" height="7.827"/>
		
			<rect x="21.669" y="6.537" transform="matrix(0.7074 0.7068 -0.7068 0.7074 14.8729 -15.0241)" style="fill:none;stroke:#000000;stroke-width:0.7116;stroke-miterlimit:10;" width="7.828" height="7.828"/>
		
			<rect x="28.739" y="13.608" transform="matrix(-0.7075 -0.7067 0.7067 -0.7075 43.3714 52.996)" style="fill:none;stroke:#000000;stroke-width:0.7116;stroke-miterlimit:10;" width="7.828" height="7.828"/>
		
			<rect x="21.669" y="34.821" transform="matrix(-0.7074 -0.7068 0.7068 -0.7074 16.3037 84.2193)" style="fill:none;stroke:#000000;stroke-width:0.7116;stroke-miterlimit:10;" width="7.828" height="7.828"/>
		
			<rect x="28.739" y="27.751" transform="matrix(-0.7075 -0.7067 0.7067 -0.7075 33.3766 77.1438)" style="fill:none;stroke:#000000;stroke-width:0.7116;stroke-miterlimit:10;" width="7.828" height="7.827"/>
		
			<rect x="35.811" y="20.68" transform="matrix(-0.7075 -0.7067 0.7067 -0.7075 50.4482 70.0672)" style="fill:none;stroke:#000000;stroke-width:0.7116;stroke-miterlimit:10;" width="7.828" height="7.827"/>
	</g>
</g>
</svg>
