<?xml version="1.0" encoding="iso-8859-1"?>
<!-- Generator: Adobe Illustrator 17.1.0, SVG Export Plug-In . SVG Version: 6.00 Build 0)  -->
<!DOCTYPE svg PUBLIC "-//W3C//DTD SVG 1.1//EN" "http://www.w3.org/Graphics/SVG/1.1/DTD/svg11.dtd">
<svg version="1.1" id="Capa_1" xmlns="http://www.w3.org/2000/svg" xmlns:xlink="http://www.w3.org/1999/xlink" x="0px" y="0px"
	 viewBox="0 0 184.08 184.08" style="enable-background:new 0 0 184.08 184.08;" xml:space="preserve">
<path style="fill:#000002;" d="M62.256,181.796H2.5c-1.381,0-2.5-1.119-2.5-2.5V54.534c0-13.117,9.35-24.222,22.25-26.449
	l96.891-25.532c2.09-0.549,4.268-0.25,6.131,0.838c1.864,1.089,3.192,2.839,3.74,4.927c0.548,2.088,0.25,4.265-0.839,6.129
	c-1.089,1.864-2.839,3.192-4.927,3.74L57.004,35.668c4.92,4.982,7.751,11.741,7.751,18.865v36.047l95.84-24.194
	c4.778-1.206,9.738-0.48,13.971,2.046c4.231,2.526,7.226,6.548,8.432,11.326l1.005,3.98c0.163,0.643,0.063,1.324-0.277,1.893
	s-0.892,0.98-1.535,1.143l-5.936,1.499l1.397,5.859c0.154,0.645,0.045,1.325-0.302,1.89c-0.347,0.565-0.904,0.968-1.549,1.122
	l-20.533,4.897c-1.344,0.325-2.691-0.509-3.012-1.852l-1.318-5.525L64.756,116.42v62.876
	C64.756,180.677,63.637,181.796,62.256,181.796z M5,176.796h54.756v-62.323c0-1.145,0.778-2.144,1.888-2.424l116.899-29.51
	l-0.393-1.557c-0.879-3.483-3.062-6.415-6.146-8.256c-3.085-1.841-6.7-2.371-10.185-1.492L62.868,96.214
	c-0.748,0.189-1.541,0.022-2.148-0.452c-0.608-0.474-0.964-1.201-0.964-1.972V64.113H14.993l0.001,104.078
	c0,1.381-1.119,2.5-2.5,2.5s-2.5-1.119-2.5-2.5V64.113H5V176.796z M155.891,93.876l0.649,2.722l15.669-3.737l-0.649-2.722
	L155.891,93.876z M15.02,59.113h44.736v-4.579c0-7.182-3.538-13.91-9.463-17.996c-0.804-0.555-1.211-1.526-1.043-2.488
	s0.881-1.738,1.825-1.987l70.9-18.711c0.8-0.21,1.467-0.716,1.883-1.427c0.415-0.711,0.529-1.541,0.32-2.337
	c-0.432-1.645-2.119-2.628-3.764-2.199l-96.996,25.56c-0.073,0.02-0.147,0.035-0.222,0.048C12.652,34.77,5,43.829,5,54.534v4.579
	h5.018c0.147-3.981,0.902-11.488,4.385-15.083c4.546-4.694,10.531-5.609,10.784-5.646c1.366-0.199,2.634,0.749,2.833,2.115
	c0.198,1.363-0.744,2.628-2.104,2.832l0,0c-0.045,0.007-4.593,0.741-7.922,4.177C16.034,49.532,15.197,54.957,15.02,59.113z"/>
<g>
</g>
<g>
</g>
<g>
</g>
<g>
</g>
<g>
</g>
<g>
</g>
<g>
</g>
<g>
</g>
<g>
</g>
<g>
</g>
<g>
</g>
<g>
</g>
<g>
</g>
<g>
</g>
<g>
</g>
</svg>
