<?xml version="1.0" encoding="iso-8859-1"?>
<!-- Generator: Adobe Illustrator 16.2.0, SVG Export Plug-In . SVG Version: 6.00 Build 0)  -->
<!DOCTYPE svg PUBLIC "-//W3C//DTD SVG 1.1//EN" "http://www.w3.org/Graphics/SVG/1.1/DTD/svg11.dtd">
<svg version="1.1" id="Capa_1" xmlns="http://www.w3.org/2000/svg" xmlns:xlink="http://www.w3.org/1999/xlink" x="0px" y="0px"
	 width="314.32px" height="350px" viewBox="0 20.265 314.32 350" style="enable-background:new 0 20.265 314.32 350;"
	 xml:space="preserve">
<path style="fill:#000002;" d="M100.662,354.892H4.042c-2.233,0-4.042-1.81-4.042-4.042V149.121
	c0-21.209,15.118-39.165,35.976-42.766L192.64,65.073c3.379-0.888,6.9-0.404,9.912,1.354c3.015,1.761,5.162,4.591,6.048,7.967
	s0.404,6.896-1.356,9.91c-1.762,3.014-4.591,5.161-7.967,6.047L92.17,118.616c7.955,8.056,12.533,18.984,12.533,30.503v58.285
	l154.964-39.12c7.726-1.949,15.745-0.775,22.59,3.309c6.841,4.084,11.684,10.588,13.634,18.313l1.625,6.435
	c0.264,1.04,0.102,2.141-0.447,3.062c-0.551,0.92-1.443,1.584-2.482,1.848l-9.598,2.424l2.258,9.474
	c0.25,1.043,0.073,2.143-0.488,3.056c-0.561,0.914-1.461,1.565-2.504,1.814l-33.2,7.918c-2.173,0.525-4.351-0.823-4.87-2.995
	l-2.131-8.933l-139.348,35.177V350.85C104.704,353.082,102.895,354.892,100.662,354.892z M8.084,346.807H96.62v-100.77
	c0-1.852,1.258-3.467,3.053-3.92l189.015-47.715l-0.636-2.518c-1.421-5.632-4.95-10.372-9.938-13.349
	c-4.987-2.978-10.833-3.834-16.468-2.413l-159.995,40.391c-1.209,0.306-2.492,0.035-3.473-0.73
	c-0.983-0.767-1.559-1.942-1.559-3.188V164.61H24.242l0.001,168.284c0,2.232-1.809,4.042-4.042,4.042s-4.042-1.81-4.042-4.042
	V164.61H8.084V346.807z M252.06,212.734l1.051,4.401l25.334-6.043l-1.049-4.4L252.06,212.734z M24.286,156.525H96.62v-7.403
	c0-11.612-5.721-22.491-15.301-29.098c-1.3-0.897-1.958-2.468-1.687-4.023c0.272-1.555,1.425-2.81,2.951-3.212l114.639-30.254
	c1.293-0.34,2.371-1.158,3.045-2.308c0.67-1.149,0.855-2.492,0.517-3.779c-0.698-2.659-3.427-4.249-6.086-3.555L37.865,114.221
	c-0.118,0.032-0.238,0.056-0.359,0.077c-17.049,2.867-29.421,17.515-29.421,34.823v7.403h8.114
	c0.238-6.437,1.458-18.574,7.09-24.388c7.351-7.589,17.028-9.068,17.437-9.129c2.208-0.321,4.259,1.211,4.581,3.42
	c0.32,2.204-1.203,4.249-3.402,4.579l0,0c-0.073,0.012-7.427,1.198-12.809,6.754C25.925,141.033,24.572,149.805,24.286,156.525z"/>
</svg>
