<?xml version="1.0" encoding="utf-8"?>
<!-- Generator: Avocode 2.4.5 - http://avocode.com -->
<svg height="22" width="22" xmlns:xlink="http://www.w3.org/1999/xlink" xmlns="http://www.w3.org/2000/svg" viewBox="0 0 22 22">
    <path fill="#ce0d0b" fill-rule="evenodd" d="M 21.38 21.38 C 20.57 22.18 19.27 22.18 18.46 21.38 C 18.46 21.38 13.42 16.33 13.42 16.33 C 14.59 15.58 15.58 14.59 16.33 13.42 C 16.33 13.42 21.38 18.46 21.38 18.46 C 22.18 19.27 22.18 20.57 21.38 21.38 Z M 8.24 16.49 C 3.69 16.49 0 12.79 0 8.24 C 0 3.69 3.69 0 8.24 0 C 12.8 0 16.48 3.69 16.48 8.24 C 16.48 12.79 12.8 16.49 8.24 16.49 Z M 8.24 2.06 C 4.83 2.06 2.06 4.83 2.06 8.24 C 2.06 11.65 4.83 14.42 8.24 14.42 C 11.65 14.42 14.42 11.65 14.42 8.24 C 14.42 4.83 11.65 2.06 8.24 2.06 Z M 4.81 8.24 C 4.81 8.24 3.43 8.24 3.43 8.24 C 3.43 5.59 5.59 3.43 8.24 3.43 C 8.24 3.43 8.24 4.81 8.24 4.81 C 6.35 4.81 4.81 6.35 4.81 8.24 Z" />
</svg>