<?xml version="1.0" encoding="utf-8"?>
<!-- Generator: Avocode 2.4.5 - http://avocode.com -->
<svg height="30" width="30" xmlns:xlink="http://www.w3.org/1999/xlink" xmlns="http://www.w3.org/2000/svg" viewBox="0 0 30 30">
    <path fill="#ffffff" fill-rule="evenodd" d="M 15.09 0 C 6.86 0 0.18 6.72 0.18 15 C 0.18 23.28 6.86 30 15.09 30 C 23.33 30 30 23.28 30 15 C 30 6.72 23.33 0 15.09 0 Z M 22.65 16.62 C 23.35 17.3 24.08 17.95 24.71 18.7 C 24.98 19.03 25.24 19.38 25.44 19.77 C 25.72 20.32 25.47 20.92 24.98 20.96 C 24.98 20.96 21.92 20.96 21.92 20.96 C 21.13 21.02 20.51 20.7 19.98 20.16 C 19.56 19.73 19.16 19.27 18.76 18.82 C 18.59 18.64 18.41 18.46 18.21 18.33 C 17.79 18.05 17.43 18.14 17.19 18.57 C 16.95 19.02 16.89 19.51 16.87 20.01 C 16.84 20.73 16.62 20.92 15.89 20.96 C 14.35 21.03 12.89 20.79 11.53 20.01 C 10.32 19.32 9.39 18.35 8.58 17.24 C 7.01 15.09 5.8 12.73 4.71 10.3 C 4.47 9.75 4.65 9.46 5.25 9.45 C 6.24 9.43 7.24 9.43 8.24 9.44 C 8.64 9.45 8.91 9.69 9.07 10.07 C 9.61 11.4 10.27 12.67 11.09 13.85 C 11.31 14.16 11.54 14.47 11.86 14.7 C 12.21 14.94 12.48 14.86 12.65 14.46 C 12.76 14.21 12.8 13.94 12.83 13.67 C 12.91 12.74 12.91 11.81 12.78 10.89 C 12.69 10.31 12.37 9.94 11.8 9.83 C 11.51 9.77 11.55 9.67 11.69 9.5 C 11.94 9.21 12.17 9.03 12.63 9.03 C 12.63 9.03 16.08 9.03 16.08 9.03 C 16.62 9.14 16.74 9.38 16.82 9.93 C 16.82 9.93 16.82 13.79 16.82 13.79 C 16.82 14.01 16.93 14.64 17.31 14.78 C 17.61 14.88 17.81 14.63 18 14.44 C 18.82 13.56 19.41 12.51 19.94 11.43 C 20.17 10.96 20.38 10.46 20.57 9.97 C 20.72 9.6 20.94 9.43 21.35 9.43 C 21.35 9.43 24.67 9.44 24.67 9.44 C 24.77 9.44 24.87 9.44 24.97 9.45 C 25.53 9.55 25.68 9.79 25.51 10.34 C 25.24 11.21 24.71 11.93 24.19 12.65 C 23.63 13.42 23.04 14.16 22.49 14.94 C 21.99 15.65 22.03 16.01 22.65 16.62 Z" />
</svg>