<?xml version="1.0" encoding="iso-8859-1"?>
<!-- Generator: Adobe Illustrator 17.1.0, SVG Export Plug-In . SVG Version: 6.00 Build 0)  -->
<!DOCTYPE svg PUBLIC "-//W3C//DTD SVG 1.1//EN" "http://www.w3.org/Graphics/SVG/1.1/DTD/svg11.dtd">
<svg version="1.1" id="Capa_1" xmlns="http://www.w3.org/2000/svg" xmlns:xlink="http://www.w3.org/1999/xlink" x="0px" y="0px"
	 viewBox="0 0 206.624 206.624" style="enable-background:new 0 0 206.624 206.624;" xml:space="preserve">
<path d="M90.357,206.624H80.302c-3.421,0-6.205-2.796-6.205-6.232v-10.053l-1.941-51.334c-0.089-0.107-0.17-0.223-0.241-0.347
	l-15.993-27.7h-32.36c-1.381,0-2.5-1.119-2.5-2.5v-8.606h-18c-0.902,0-1.734-0.486-2.178-1.272
	c-0.443-0.786-0.428-1.749,0.038-2.521L7.213,85.65C7.594,38.359,46.183,0,93.562,0c31.961,0,60.972,17.402,76.078,45.518h12.589
	c1.381,0,2.5,1.119,2.5,2.5v38.698l19.802,8.331c1.097,0.461,1.717,1.632,1.481,2.799s-1.261,2.005-2.451,2.005h-34.241v8.606
	c0,1.381-1.119,2.5-2.5,2.5h-52.125l-15.993,27.7c-0.06,0.103-0.126,0.201-0.198,0.293l-1.943,51.387v10.053
	C96.562,203.828,93.778,206.624,90.357,206.624z M79.097,192.791v7.601c0,0.68,0.541,1.232,1.205,1.232h10.055
	c0.665,0,1.205-0.553,1.205-1.232v-7.601h-3.732v3.208c0,1.381-1.119,2.5-2.5,2.5s-2.5-1.119-2.5-2.5v-3.208H79.097z
	 M85.329,187.791h6.325l1.811-47.883H77.193l1.811,47.883H85.329z M75.523,134.908h19.572l15.993-27.7
	c0.447-0.773,1.272-1.25,2.165-1.25h51.068v-6.106h-61.727l-9.347,16.189c-0.447,0.773-1.272,1.25-2.165,1.25H79.527
	c-0.893,0-1.718-0.477-2.165-1.25l-9.347-16.189H26.062v6.106h31.303c0.893,0,1.718,0.477,2.165,1.25L75.523,134.908z
	 M80.971,112.291h8.669l7.182-12.439H73.788L80.971,112.291z M166.821,94.852h24.351l-9.913-4.17
	c-0.928-0.39-1.531-1.298-1.531-2.304V50.518h-11.598c-0.936,0-1.794-0.523-2.223-1.355C151.876,21.922,124.154,5,93.562,5
	C48.704,5,12.21,41.494,12.21,86.352c0,0.456-0.125,0.903-0.36,1.293l-4.356,7.207H166.821z M111.895,88.852
	c-1.381,0-2.5-1.119-2.5-2.5V66.518H69.062v19.833c0,1.381-1.119,2.5-2.5,2.5s-2.5-1.119-2.5-2.5V64.018c0-1.381,1.119-2.5,2.5-2.5
	h45.333c1.381,0,2.5,1.119,2.5,2.5v22.333C114.395,87.732,113.276,88.852,111.895,88.852z M35.95,70.076
	c-0.204,0-0.411-0.025-0.617-0.077c-1.338-0.34-2.148-1.7-1.809-3.038c0.111-0.437,2.817-10.827,11.577-21.297
	c8.093-9.673,23.076-21.203,48.5-21.203c25.432,0,40.302,11.537,48.298,21.215c8.655,10.477,11.255,20.872,11.361,21.309
	c0.326,1.341-0.497,2.693-1.838,3.02c-1.341,0.327-2.691-0.495-3.019-1.834l0,0c-0.39-1.581-10.059-38.709-54.802-38.709
	c-44.885,0-55.133,38.342-55.231,38.729C38.084,69.322,37.067,70.076,35.95,70.076z"/>
<g>
</g>
<g>
</g>
<g>
</g>
<g>
</g>
<g>
</g>
<g>
</g>
<g>
</g>
<g>
</g>
<g>
</g>
<g>
</g>
<g>
</g>
<g>
</g>
<g>
</g>
<g>
</g>
<g>
</g>
</svg>
