<?xml version="1.0" encoding="iso-8859-1"?>
<!-- Generator: Adobe Illustrator 16.2.0, SVG Export Plug-In . SVG Version: 6.00 Build 0)  -->
<!DOCTYPE svg PUBLIC "-//W3C//DTD SVG 1.1//EN" "http://www.w3.org/Graphics/SVG/1.1/DTD/svg11.dtd">
<svg version="1.1" id="Capa_1" xmlns="http://www.w3.org/2000/svg" xmlns:xlink="http://www.w3.org/1999/xlink" x="0px" y="0px"
	 width="297.64px" height="338px" viewBox="0 34.265 297.64 338" style="enable-background:new 0 34.265 297.64 338;"
	 xml:space="preserve">
<path d="M130.158,358.585h-14.484c-4.928,0-8.938-4.028-8.938-8.978v-14.481l-2.796-73.946c-0.128-0.153-0.245-0.321-0.347-0.499
	l-23.038-39.902H33.941c-1.989,0-3.602-1.611-3.602-3.601v-12.397H4.411c-1.299,0-2.498-0.7-3.137-1.832
	c-0.638-1.132-0.617-2.52,0.055-3.632l9.062-14.994C10.939,116.2,66.526,60.946,134.775,60.946c46.039,0,87.83,25.067,109.59,65.567
	H262.5c1.988,0,3.601,1.612,3.601,3.602v55.744l28.524,12.001c1.58,0.664,2.474,2.351,2.134,4.031
	c-0.341,1.682-1.817,2.889-3.53,2.889h-49.324v12.396c0,1.989-1.611,3.602-3.602,3.602h-75.086l-23.037,39.901
	c-0.086,0.148-0.182,0.29-0.285,0.422l-2.799,74.022v14.481C139.097,354.557,135.086,358.585,130.158,358.585z M113.938,338.658
	v10.949c0,0.979,0.779,1.774,1.736,1.774h14.484c0.958,0,1.736-0.796,1.736-1.774v-10.949h-5.376v4.621
	c0,1.989-1.612,3.602-3.601,3.602s-3.601-1.612-3.601-3.602v-4.621H113.938z M122.916,331.456h9.111l2.609-68.976h-23.439
	l2.608,68.976H122.916z M108.79,255.279h28.193l23.038-39.901c0.645-1.113,1.832-1.801,3.119-1.801h73.563v-8.796h-88.917
	l-13.464,23.32c-0.644,1.113-1.833,1.801-3.119,1.801h-16.645c-1.286,0-2.475-0.688-3.119-1.801l-13.464-23.32H37.542v8.796h45.092
	c1.286,0,2.475,0.688,3.119,1.801L108.79,255.279z M116.638,222.699h12.488l10.346-17.919h-33.18L116.638,222.699z M240.304,197.578
	h35.077l-14.28-6.007c-1.336-0.562-2.205-1.87-2.205-3.319v-54.536h-16.707c-1.348,0-2.584-0.754-3.201-1.952
	c-20.212-39.24-60.146-63.616-104.213-63.616c-64.617,0-117.187,52.569-117.187,117.187c0,0.657-0.18,1.301-0.519,1.862
	l-6.275,10.382H240.304z M161.183,188.936c-1.988,0-3.601-1.612-3.601-3.602v-28.57h-58.1v28.569c0,1.989-1.612,3.601-3.601,3.601
	s-3.601-1.611-3.601-3.601v-32.171c0-1.989,1.612-3.602,3.601-3.602h65.301c1.99,0,3.602,1.612,3.602,3.602v32.171
	C164.785,187.323,163.173,188.936,161.183,188.936z M51.786,161.889c-0.294,0-0.592-0.036-0.889-0.111
	c-1.928-0.489-3.094-2.448-2.606-4.376c0.16-0.63,4.058-15.596,16.676-30.678c11.658-13.935,33.241-30.543,69.864-30.543
	c36.635,0,58.055,16.619,69.573,30.56c12.468,15.093,16.213,30.066,16.365,30.695c0.471,1.933-0.715,3.88-2.647,4.351
	c-1.932,0.472-3.876-0.713-4.349-2.642l0,0c-0.563-2.277-14.49-55.76-78.942-55.76c-64.656,0-79.418,55.231-79.56,55.788
	C54.859,160.803,53.395,161.889,51.786,161.889z"/>
</svg>
